<svg width="273" height="273" viewBox="0 0 273 273" fill="none" xmlns="http://www.w3.org/2000/svg">
<g clip-path="url(#clip0)">
<path fill-rule="evenodd" clip-rule="evenodd" d="M25.4823 131.548C96.1663 202.233 170.917 233.888 219.851 219.998C233.692 171.236 202.453 96.6928 132.207 26.2882L131.462 25.5435C144 71 61.9998 142.5 25.4823 131.548Z" fill="#8D499C"/>
<path fill-rule="evenodd" clip-rule="evenodd" d="M39.9999 132.325C40.2916 132.23 40.584 132.133 40.8771 132.033C40.5835 132.084 40.2911 132.131 39.9999 132.175L39.9999 132.325ZM219.851 220.002C216.828 220.86 213.706 221.544 210.492 222.056C223.398 175.642 195.706 106.075 132.611 38.9386C132.983 34.3054 132.639 29.8118 131.463 25.5475L132.207 26.2922C202.453 96.6968 233.692 171.24 219.851 220.002Z" fill="#42154C"/>
<ellipse cx="76.3675" cy="76.3674" rx="75" ry="33" transform="rotate(-45 76.3675 76.3674)" fill="#CD91DC"/>
<ellipse cx="76.3675" cy="77.0745" rx="52.5" ry="18.5" transform="rotate(-45 76.3675 77.0745)" fill="#F3CCFD"/>
<path fill-rule="evenodd" clip-rule="evenodd" d="M124 128C114 139 91.5 157 80 160L82 170C97 163 119.5 146.5 130 134.5L124 128ZM145.5 156C135.5 167 121.5 178.5 110 181.5L112 191.5C127 184.5 141 175.5 151.5 163.5L145.5 156ZM138 196.5C149.5 193.5 158 188.5 168 177.5L174 182.5C163.5 194.5 155 199.5 140 206.5L138 196.5Z" fill="#EECEF7"/>
</g>
<defs>
<clipPath id="clip0">
<rect width="273" height="273" fill="white"/>
</clipPath>
</defs>
</svg>
