<svg width="273" height="273" viewBox="0 0 273 273" fill="none" xmlns="http://www.w3.org/2000/svg">
<path fill-rule="evenodd" clip-rule="evenodd" d="M127.279 25.4558C129.803 27.98 131.219 31.7029 131.316 36.6442C131.414 41.606 130.169 47.6017 127.572 54.2802C122.38 67.6286 112.002 83.1593 97.5807 97.5807C83.1593 112.002 67.6286 122.38 54.2802 127.572C47.6017 130.169 41.606 131.414 36.6442 131.316C31.7029 131.219 27.98 129.803 25.4558 127.279C22.9317 124.755 21.5162 121.032 21.4187 116.091C21.3207 111.129 22.5664 105.133 25.1635 98.4549C30.3546 85.1065 40.7329 69.5758 55.1543 55.1543C69.5758 40.7329 85.1065 30.3546 98.4549 25.1635C105.133 22.5664 111.129 21.3207 116.091 21.4187C121.032 21.5162 124.755 22.9317 127.279 25.4558ZM129.401 23.3345C130.261 24.1949 131.005 25.1502 131.635 26.1927C131.579 25.9757 131.522 25.7593 131.462 25.5435L132.207 26.2882C202.453 96.6928 233.692 171.236 219.851 219.998C170.917 233.888 96.1663 202.233 25.4823 131.548C25.8317 131.653 26.1852 131.75 26.5428 131.84C25.3633 131.168 24.2903 130.356 23.3345 129.401C10.4472 116.513 23.7437 82.3223 53.033 53.033C82.3223 23.7437 116.513 10.4472 129.401 23.3345ZM89.4491 90.1562C109.952 69.6536 120.715 47.1763 113.491 39.9516C106.266 32.7269 83.7887 43.4907 63.2862 63.9932C42.7837 84.4957 32.0199 106.973 39.2446 114.198C46.4693 121.422 68.9466 110.659 89.4491 90.1562ZM80 160C91.5 157 114 139 124 128L130 134.5C119.5 146.5 97 163 82 170L80 160ZM110 181.5C121.5 178.5 135.5 167 145.5 156L151.5 163.5C141 175.5 127 184.5 112 191.5L110 181.5ZM168 177.5C158 188.5 149.5 193.5 138 196.5L140 206.5C155 199.5 163.5 194.5 174 182.5L168 177.5Z" fill="white"/>
</svg>
